<svg width="39" height="40" viewBox="0 0 39 40" fill="none" xmlns="http://www.w3.org/2000/svg">
<path opacity="0.3" d="M38.4231 19.9999C38.4231 30.2337 30.0418 38.5383 19.6923 38.5383C9.34285 38.5383 0.961548 30.2337 0.961548 19.9999C0.961548 9.7661 9.34285 1.46143 19.6923 1.46143C30.0418 1.46143 38.4231 9.7661 38.4231 19.9999Z" stroke="white"/>
<path d="M22.8976 13.6538H20.9745C20.1245 13.6538 19.3092 13.9881 18.7082 14.5832C18.1071 15.1782 17.7694 15.9853 17.7694 16.8269V18.7307H15.8463V21.2692H17.7694V26.3461H20.3335V21.2692H22.2566L22.8976 18.7307H20.3335V16.8269C20.3335 16.6586 20.401 16.4972 20.5212 16.3781C20.6415 16.2591 20.8045 16.1923 20.9745 16.1923H22.8976V13.6538Z" stroke="white" stroke-linecap="round" stroke-linejoin="round"/>
</svg>
