<svg width="39" height="40" viewBox="0 0 39 40" fill="none" xmlns="http://www.w3.org/2000/svg">
<path opacity="0.3" d="M38.3462 19.9999C38.3462 30.2337 29.9649 38.5383 19.6154 38.5383C9.26595 38.5383 0.884644 30.2337 0.884644 19.9999C0.884644 9.7661 9.26595 1.46143 19.6154 1.46143C29.9649 1.46143 38.3462 9.7661 38.3462 19.9999Z" stroke="white"/>
<path d="M22.1801 17.4617C23.2002 17.4617 24.1785 17.8628 24.8998 18.5769C25.6211 19.291 26.0263 20.2595 26.0263 21.2694V25.7117H23.4622V21.2694C23.4622 20.9327 23.3271 20.6099 23.0867 20.3719C22.8463 20.1339 22.5202 20.0001 22.1801 20.0001C21.8401 20.0001 21.514 20.1339 21.2736 20.3719C21.0332 20.6099 20.8981 20.9327 20.8981 21.2694V25.7117H18.334V21.2694C18.334 20.2595 18.7392 19.291 19.4605 18.5769C20.1818 17.8628 21.1601 17.4617 22.1801 17.4617Z" stroke="white" stroke-linecap="round" stroke-linejoin="round"/>
<path d="M15.7702 18.0959H13.2061V25.7113H15.7702V18.0959Z" stroke="white" stroke-linecap="round" stroke-linejoin="round"/>
<path d="M14.4881 16.1923C15.1962 16.1923 15.7702 15.624 15.7702 14.923C15.7702 14.2221 15.1962 13.6538 14.4881 13.6538C13.78 13.6538 13.2061 14.2221 13.2061 14.923C13.2061 15.624 13.78 16.1923 14.4881 16.1923Z" stroke="white" stroke-linecap="round" stroke-linejoin="round"/>
</svg>
