<svg width="39" height="39" viewBox="0 0 39 39" fill="none" xmlns="http://www.w3.org/2000/svg">
<path opacity="0.3" d="M37.9615 19.0385C37.9615 29.2722 29.5802 37.5769 19.2308 37.5769C8.8813 37.5769 0.5 29.2722 0.5 19.0385C0.5 8.80468 8.8813 0.5 19.2308 0.5C29.5802 0.5 37.9615 8.80468 37.9615 19.0385Z" stroke="white"/>
<path d="M25.641 13.9681C25.0272 14.3967 24.3475 14.7246 23.6282 14.939C23.2421 14.4995 22.7291 14.1881 22.1583 14.0467C21.5876 13.9053 20.9868 13.9409 20.4372 14.1486C19.8876 14.3563 19.4157 14.726 19.0852 15.2079C18.7548 15.6898 18.5818 16.2605 18.5897 16.8429V17.4775C17.4632 17.5064 16.347 17.259 15.3404 16.7575C14.3338 16.2559 13.4681 15.5156 12.8205 14.6027C12.8205 14.6027 10.2564 20.3142 16.0256 22.8527C14.7055 23.7398 13.1328 24.1847 11.5385 24.1219C17.3077 27.295 24.359 24.1219 24.359 16.8238C24.3584 16.6471 24.3412 16.4707 24.3077 16.2971C24.9619 15.6583 25.4236 14.8519 25.641 13.9681V13.9681Z" stroke="white" stroke-linecap="round" stroke-linejoin="round"/>
</svg>
