<svg width="201" height="40" viewBox="0 0 201 40" fill="none" xmlns="http://www.w3.org/2000/svg">
<circle cx="26" cy="26" r="14" fill="#EC615B"/>
<g style="mix-blend-mode:multiply">
<circle cx="14" cy="14" r="14" fill="#5222D0"/>
</g>
<path d="M64.15 14.875C64.15 11.85 61.725 9.50002 58.7 9.50002H51.225V27H59.425C63 27 64.85 24.525 64.875 21.475C64.875 19.925 64.2 18.625 62.775 17.9C63.625 17.2 64.15 15.925 64.15 14.875ZM59.1 20.05C60.9 20.05 60.925 23.025 59.125 23.025H55.55V20.05H59.1ZM58.35 13.5C60.15 13.5 60.15 16.325 58.375 16.325H55.55V13.5H58.35Z" fill="black"/>
<path d="M78.8136 18.4V27C80.3636 27 81.9136 27 83.4386 27V9.42503H81.8136L72.9636 18.075V9.50002C71.4386 9.50002 69.9136 9.50002 68.3886 9.50002V27.025H69.9886L78.8136 18.4Z" fill="black"/>
<path d="M99.0443 27H103.419V26.35L95.5193 9.27502H93.5943L85.7193 26.35V27H90.0943L91.1193 24.8H98.0193L99.0443 27ZM96.5693 20.975H92.5693L94.5443 16.375L96.5693 20.975Z" fill="black"/>
<path d="M110.192 27V22.525H113.417C121.792 22.525 121.792 9.52502 113.417 9.50002C110.842 9.50002 108.242 9.50002 105.717 9.50002C105.717 15.35 105.717 21.175 105.717 27C107.192 27 108.692 27 110.192 27ZM113.392 18.5H110.192C110.192 17.075 110.192 14.925 110.192 13.5C111.217 13.5 112.342 13.475 113.392 13.5C115.992 13.525 115.842 18.5 113.392 18.5Z" fill="black"/>
<path d="M124.151 27H128.976L137.276 10.175V9.50002H132.426L129.426 15.95H129.301L126.001 9.50002H121.001V10.175L126.901 20.875L124.151 26.525V27Z" fill="black"/>
<path d="M139.727 27H161.902V9.50002H157.327V22.875H153.102V9.50002H148.527V22.875H144.302V9.50002H139.727V27Z" fill="black"/>
<path d="M170.937 27V20.325C171.512 20.325 172.062 20.325 172.662 20.225L176.512 27H181.487V26.3L176.737 18.6C180.212 16.375 180.112 13.075 180.112 9.50002C178.562 9.50002 177.037 9.50002 175.512 9.50002C175.512 12.775 175.737 16.125 171.262 16.125H170.937V9.50002C169.387 9.50002 167.887 9.50002 166.387 9.50002V27C167.887 27 169.387 27 170.937 27Z" fill="black"/>
<path d="M196.237 27H200.612V26.35L192.712 9.27502H190.787L182.912 26.35V27H187.287L188.312 24.8H195.212L196.237 27ZM193.762 20.975H189.762L191.737 16.375L193.762 20.975Z" fill="black"/>
</svg>
