<svg width="36" height="36" viewBox="0 0 36 36" fill="none" xmlns="http://www.w3.org/2000/svg">
<path d="M0 0V36H36V0H0ZM18 27C17.1 27 16.2563 26.8875 15.4688 26.6062C15.8062 26.0437 16.2 25.3688 16.3687 24.6938C16.4813 24.3 16.9875 22.2188 16.9875 22.2188C17.325 22.8375 18.225 23.3438 19.1812 23.3438C22.05 23.3438 24.0188 20.7 24.0188 17.1562C24.0188 14.5125 21.7687 11.9812 18.3375 11.9812C14.0625 11.9812 11.925 15.075 11.925 17.6062C11.925 19.1812 12.4875 20.5312 13.7812 21.0375C14.0063 21.0938 14.175 21.0375 14.2312 20.8125C14.2875 20.6437 14.3438 20.25 14.4 20.0813C14.4563 19.8563 14.4563 19.8 14.2875 19.575C13.95 19.125 13.6687 18.6187 13.6687 17.8313C13.6687 15.5813 15.3563 13.5 18.1125 13.5C20.5312 13.5 21.8813 14.9625 21.8813 16.9312C21.8813 19.5187 20.7563 21.7125 19.0125 21.7125C18.0562 21.7125 17.3813 20.925 17.6062 19.9688C17.8875 18.8438 18.3938 17.6062 18.3938 16.7625C18.3938 16.0312 18 15.4125 17.1562 15.4125C16.2 15.4125 15.4125 16.425 15.4125 17.7188C15.4125 18.5625 15.6937 19.125 15.6937 19.125C15.6937 19.125 14.6812 23.2875 14.5125 24.0188C14.3438 24.6938 14.3438 25.4813 14.3438 26.1C11.1938 24.8625 9 21.7125 9 18C9 13.05 13.05 9 18 9C22.95 9 27 13.05 27 18C27 22.95 22.95 27 18 27Z" fill="black"/>
</svg>
