<svg width="40" height="40" viewBox="0 0 40 40" fill="none" xmlns="http://www.w3.org/2000/svg">
<path opacity="0.3" d="M38.8846 19.9999C38.8846 30.2337 30.5033 38.5383 20.1539 38.5383C9.8044 38.5383 1.4231 30.2337 1.4231 19.9999C1.4231 9.7661 9.8044 1.46143 20.1539 1.46143C30.5033 1.46143 38.8846 9.7661 38.8846 19.9999Z" stroke="white"/>
<path d="M23.359 13.6538H16.9488C15.1786 13.6538 13.7437 15.0744 13.7437 16.8269V23.173C13.7437 24.9255 15.1786 26.3461 16.9488 26.3461H23.359C25.1292 26.3461 26.5642 24.9255 26.5642 23.173V16.8269C26.5642 15.0744 25.1292 13.6538 23.359 13.6538Z" stroke="white" stroke-linecap="round" stroke-linejoin="round"/>
<path d="M22.7171 19.6004C22.7962 20.1286 22.705 20.668 22.4566 21.1419C22.2082 21.6159 21.8152 22.0002 21.3335 22.2402C20.8517 22.4803 20.3058 22.5638 19.7733 22.479C19.2408 22.3942 18.7489 22.1453 18.3676 21.7678C17.9862 21.3902 17.7348 20.9032 17.6491 20.3761C17.5635 19.8489 17.6479 19.3084 17.8903 18.8315C18.1328 18.3546 18.521 17.9655 18.9997 17.7196C19.4785 17.4737 20.0233 17.3835 20.5568 17.4618C21.101 17.5417 21.6048 17.7927 21.9938 18.1778C22.3828 18.5629 22.6364 19.0617 22.7171 19.6004Z" stroke="white" stroke-linecap="round" stroke-linejoin="round"/>
<path d="M23.679 16.5098H23.6856" stroke="white" stroke-linecap="round" stroke-linejoin="round"/>
</svg>
