<svg width="36" height="36" viewBox="0 0 36 36" fill="none" xmlns="http://www.w3.org/2000/svg">
<path d="M24.5773 13.0236C24.4243 12.6298 24.2415 12.3486 23.9462 12.0532C23.6509 11.7579 23.3696 11.5751 22.9759 11.4221C22.6783 11.3068 22.2317 11.169 21.4093 11.1313C20.5194 11.0908 20.2528 11.0824 18 11.0824C15.7472 11.0824 15.48 11.0908 14.5907 11.1313C13.7683 11.169 13.3211 11.3062 13.0241 11.4221C12.6304 11.5751 12.3491 11.7579 12.0538 12.0532C11.7585 12.3486 11.5757 12.6298 11.4227 13.0236C11.3074 13.3211 11.1696 13.7677 11.1324 14.5901C11.0919 15.48 11.0835 15.7466 11.0835 17.9994C11.0835 20.2523 11.0919 20.5194 11.1324 21.4088C11.1701 22.2311 11.3074 22.6783 11.4227 22.9753C11.5757 23.3691 11.7585 23.6503 12.0538 23.9456C12.3491 24.2409 12.6304 24.4237 13.0241 24.5768C13.3217 24.6921 13.7683 24.8299 14.5907 24.867C15.48 24.9075 15.7472 24.9159 18 24.9159C20.2528 24.9159 20.52 24.9075 21.4093 24.867C22.2317 24.8293 22.6789 24.6921 22.9759 24.5768C23.3696 24.4237 23.6509 24.2409 23.9462 23.9456C24.2415 23.6503 24.4243 23.3691 24.5773 22.9753C24.6926 22.6778 24.8304 22.2311 24.8676 21.4088C24.9081 20.5189 24.9165 20.2523 24.9165 17.9994C24.9165 15.7466 24.9081 15.4794 24.8676 14.5901C24.8304 13.7677 24.6932 13.3211 24.5773 13.0236ZM18 22.3329C15.6071 22.3329 13.6671 20.3929 13.6671 18C13.6671 15.6071 15.6071 13.6671 18 13.6671C20.3929 13.6671 22.3329 15.6071 22.3329 18C22.3329 20.3929 20.3929 22.3329 18 22.3329ZM22.5039 14.5086C21.9448 14.5086 21.4914 14.0552 21.4914 13.4961C21.4914 12.9369 21.9448 12.4836 22.5039 12.4836C23.0631 12.4836 23.5164 12.9369 23.5164 13.4961C23.5164 14.0552 23.0631 14.5086 22.5039 14.5086ZM0 0V36H36V0H0ZM26.3869 21.4785C26.3458 22.3768 26.2035 22.9899 25.9948 23.5266C25.7794 24.0812 25.4908 24.552 25.0217 25.0211C24.5526 25.4902 24.0823 25.7788 23.5271 25.9943C22.9905 26.2029 22.3774 26.3453 21.4791 26.3863C20.5791 26.4279 20.2916 26.4375 18 26.4375C15.7084 26.4375 15.4209 26.4279 14.5215 26.3869C13.6232 26.3458 13.0101 26.2035 12.4734 25.9948C11.9188 25.7794 11.448 25.4908 10.9789 25.0217C10.5097 24.5526 10.2212 24.0823 10.0057 23.5271C9.79706 22.9905 9.65475 22.3774 9.61369 21.4791C9.57206 20.5791 9.5625 20.2916 9.5625 18C9.5625 15.7084 9.57206 15.4209 9.61312 14.5209C9.65419 13.6226 9.7965 13.0095 10.0052 12.4729C10.2206 11.9183 10.5092 11.4474 10.9783 10.9783C11.4474 10.5092 11.9177 10.2206 12.4729 10.0052C13.0095 9.7965 13.6232 9.65419 14.5209 9.61312C15.4209 9.57206 15.7084 9.5625 18 9.5625C20.2916 9.5625 20.5791 9.57206 21.4785 9.61312C22.3768 9.65419 22.9899 9.7965 23.5266 10.0052C24.0812 10.2206 24.552 10.5092 25.0211 10.9783C25.4902 11.4474 25.7788 11.9177 25.9943 12.4729C26.2029 13.0095 26.3453 13.6226 26.3863 14.5209C26.4279 15.4209 26.4375 15.7084 26.4375 18C26.4375 20.2916 26.4279 20.5791 26.3869 21.4785ZM18 15.1875C16.4469 15.1875 15.1875 16.4469 15.1875 18C15.1875 19.5531 16.4469 20.8125 18 20.8125C19.5531 20.8125 20.8125 19.5531 20.8125 18C20.8125 16.4469 19.5531 15.1875 18 15.1875Z" fill="black"/>
</svg>
