<svg width="36" height="36" viewBox="0 0 36 36" fill="none" xmlns="http://www.w3.org/2000/svg">
<path fill-rule="evenodd" clip-rule="evenodd" d="M36 0H0V36H36V0ZM25.6899 14.8522C24.8175 13.95 23.7606 13.5 22.5214 13.5H18.8876V15.2325H22.5214C23.2819 15.2325 23.9299 15.5138 24.4648 16.0774C25.0284 16.6129 25.3097 17.2603 25.3097 18.0214C25.3097 18.7819 25.0284 19.4439 24.4648 20.007C23.9293 20.5425 23.2819 20.8097 22.5214 20.8097H18.8876V22.5422H22.5214C23.7606 22.5422 24.8164 22.1057 25.6899 21.2321C26.5635 20.3316 27 19.2606 27 18.0214C27 16.7816 26.5635 15.7252 25.6899 14.8522ZM21.5916 17.1337H14.4084V18.9084H21.5916V17.1337ZM10.6903 18.0214C10.6903 17.2603 10.9575 16.6129 11.493 16.0774C12.0566 15.5143 12.7181 15.2325 13.4786 15.2325H17.1124V13.5H13.4786C12.2394 13.5 11.1836 13.9506 10.3101 14.8522C9.4365 15.7252 9 16.7816 9 18.0214C9 19.2606 9.4365 20.331 10.3101 21.2327C11.1831 22.1057 12.2394 22.5422 13.4786 22.5422H17.1124V20.8097H13.4786C12.7181 20.8097 12.0561 20.5425 11.493 20.007C10.9575 19.4434 10.6903 18.7819 10.6903 18.0214Z" fill="black"/>
</svg>
